<svg viewBox="0 0 200 200" xmlns="http://www.w3.org/2000/svg" version="1.1"><text y="2.135" x="0" font-size="2.135">0: 0</text><text y="6.27" x="0" font-size="2.135">1: 0</text><text y="10.405" x="0" font-size="2.135">2: 0</text><text y="14.54" x="0" font-size="2.135">3: 0</text><text y="18.674999999999997" x="0" font-size="2.135">4: 0</text><text y="22.809999999999995" x="0" font-size="2.135">5: 0</text><text y="26.945" x="0" font-size="2.135">6: 0</text><text y="31.08" x="0" font-size="2.135">7: 0</text><text y="35.214999999999996" x="0" font-size="2.135">8: 0</text><text y="39.349999999999994" x="0" font-size="2.135">9: 0</text><text y="43.48499999999999" x="0" font-size="2.135">10: 0</text><text y="47.62" x="0" font-size="2.135">11: 100</text><text y="51.754999999999995" x="0" font-size="2.135">12: 3236</text><text y="55.88999999999999" x="0" font-size="2.135">13: 14007</text><text y="60.025" x="0" font-size="2.135">14: 23336</text><text y="64.16" x="0" font-size="2.135">15: 22650</text><text y="68.295" x="0" font-size="2.135">16: 16518</text><text y="72.43" x="0" font-size="2.135">17: 10150</text><text y="76.565" x="0" font-size="2.135">18: 5378</text><text y="80.7" x="0" font-size="2.135">19: 2571</text><text y="84.835" x="0" font-size="2.135">20: 1244</text><text y="88.97" x="0" font-size="2.135">21: 494</text><text y="93.105" x="0" font-size="2.135">22: 192</text><text y="97.24" x="0" font-size="2.135">23: 80</text><text y="101.375" x="0" font-size="2.135">24: 34</text><text y="105.51" x="0" font-size="2.135">25: 6</text><text y="109.645" x="0" font-size="2.135">26: 4</text><rect width="0" height="2.135" y="0" x="9.4725">0</rect><rect width="0" height="2.135" y="4.135" x="9.4725">0</rect><rect width="0" height="2.135" y="8.27" x="9.4725">0</rect><rect width="0" height="2.135" y="12.405" x="9.4725">0</rect><rect width="0" height="2.135" y="16.54" x="9.4725">0</rect><rect width="0" height="2.135" y="20.674999999999997" x="9.4725">0</rect><rect width="0" height="2.135" y="24.81" x="9.4725">0</rect><rect width="0" height="2.135" y="28.945" x="9.4725">0</rect><rect width="0" height="2.135" y="33.08" x="9.4725">0</rect><rect width="0" height="2.135" y="37.214999999999996" x="9.4725">0</rect><rect width="0" height="2.135" y="41.349999999999994" x="9.4725">0</rect><rect width="0.8164531196434694" height="2.135" y="45.485" x="9.4725">100</rect><rect width="26.42042295166267" height="2.135" y="49.62" x="9.4725">3236</rect><rect width="114.36058846846073" height="2.135" y="53.754999999999995" x="9.4725">14007</rect><rect width="190.5275" height="2.135" y="57.89" x="9.4725">23336</rect><rect width="184.92663159924578" height="2.135" y="62.025" x="9.4725">22650</rect><rect width="134.86172630270826" height="2.135" y="66.16" x="9.4725">16518</rect><rect width="82.86999164381214" height="2.135" y="70.295" x="9.4725">10150</rect><rect width="43.908848774425785" height="2.135" y="74.42999999999999" x="9.4725">5378</rect><rect width="20.991009706033594" height="2.135" y="78.565" x="9.4725">2571</rect><rect width="10.15667680836476" height="2.135" y="82.69999999999999" x="9.4725">1244</rect><rect width="4.033278411038739" height="2.135" y="86.835" x="9.4725">494</rect><rect width="1.567589989715461" height="2.135" y="90.97" x="9.4725">192</rect><rect width="0.6531624957147755" height="2.135" y="95.10499999999999" x="9.4725">80</rect><rect width="0.27759406067877956" height="2.135" y="99.24" x="9.4725">34</rect><rect width="0.04898718717860816" height="2.135" y="103.375" x="9.4725">6</rect><rect width="0.032658124785738776" height="2.135" y="107.50999999999999" x="9.4725">4</rect></svg>
