<svg viewBox="0 0 200 200" xmlns="http://www.w3.org/2000/svg" version="1.1"><text y="1.08843537414966" x="0" font-size="1.08843537414966">0: 0</text><text y="2.4489795918367347" x="0" font-size="1.08843537414966">1: 0</text><text y="3.80952380952381" x="0" font-size="1.08843537414966">2: 0</text><text y="5.170068027210886" x="0" font-size="1.08843537414966">3: 0</text><text y="6.53061224489796" x="0" font-size="1.08843537414966">4: 0</text><text y="7.891156462585035" x="0" font-size="1.08843537414966">5: 0</text><text y="9.25170068027211" x="0" font-size="1.08843537414966">6: 0</text><text y="10.612244897959185" x="0" font-size="1.08843537414966">7: 0</text><text y="11.97278911564626" x="0" font-size="1.08843537414966">8: 0</text><text y="13.333333333333334" x="0" font-size="1.08843537414966">9: 0</text><text y="14.693877551020408" x="0" font-size="1.08843537414966">10: 0</text><text y="16.054421768707485" x="0" font-size="1.08843537414966">11: 0</text><text y="17.414965986394563" x="0" font-size="1.08843537414966">12: 0</text><text y="18.775510204081638" x="0" font-size="1.08843537414966">13: 0</text><text y="20.136054421768712" x="0" font-size="1.08843537414966">14: 0</text><text y="21.496598639455787" x="0" font-size="1.08843537414966">15: 0</text><text y="22.85714285714286" x="0" font-size="1.08843537414966">16: 0</text><text y="24.217687074829936" x="0" font-size="1.08843537414966">17: 0</text><text y="25.57823129251701" x="0" font-size="1.08843537414966">18: 0</text><text y="26.938775510204085" x="0" font-size="1.08843537414966">19: 0</text><text y="28.29931972789116" x="0" font-size="1.08843537414966">20: 0</text><text y="29.659863945578238" x="0" font-size="1.08843537414966">21: 0</text><text y="31.020408163265312" x="0" font-size="1.08843537414966">22: 0</text><text y="32.38095238095239" x="0" font-size="1.08843537414966">23: 0</text><text y="33.741496598639465" x="0" font-size="1.08843537414966">24: 0</text><text y="35.102040816326536" x="0" font-size="1.08843537414966">25: 0</text><text y="36.462585034013614" x="0" font-size="1.08843537414966">26: 0</text><text y="37.823129251700685" x="0" font-size="1.08843537414966">27: 0</text><text y="39.18367346938776" x="0" font-size="1.08843537414966">28: 0</text><text y="40.544217687074834" x="0" font-size="1.08843537414966">29: 0</text><text y="41.90476190476191" x="0" font-size="1.08843537414966">30: 0</text><text y="43.26530612244898" x="0" font-size="1.08843537414966">31: 0</text><text y="44.62585034013606" x="0" font-size="1.08843537414966">32: 0</text><text y="45.98639455782314" x="0" font-size="1.08843537414966">33: 0</text><text y="47.34693877551021" x="0" font-size="1.08843537414966">34: 0</text><text y="48.70748299319729" x="0" font-size="1.08843537414966">35: 0</text><text y="50.06802721088436" x="0" font-size="1.08843537414966">36: 0</text><text y="51.42857142857144" x="0" font-size="1.08843537414966">37: 0</text><text y="52.78911564625851" x="0" font-size="1.08843537414966">38: 0</text><text y="54.14965986394559" x="0" font-size="1.08843537414966">39: 0</text><text y="55.51020408163266" x="0" font-size="1.08843537414966">40: 0</text><text y="56.870748299319736" x="0" font-size="1.08843537414966">41: 0</text><text y="58.231292517006814" x="0" font-size="1.08843537414966">42: 0</text><text y="59.591836734693885" x="0" font-size="1.08843537414966">43: 0</text><text y="60.95238095238096" x="0" font-size="1.08843537414966">44: 0</text><text y="62.312925170068034" x="0" font-size="1.08843537414966">45: 0</text><text y="63.67346938775511" x="0" font-size="1.08843537414966">46: 0</text><text y="65.03401360544218" x="0" font-size="1.08843537414966">47: 0</text><text y="66.39455782312926" x="0" font-size="1.08843537414966">48: 0</text><text y="67.75510204081633" x="0" font-size="1.08843537414966">49: 0</text><text y="69.1156462585034" x="0" font-size="1.08843537414966">50: 0</text><text y="70.47619047619048" x="0" font-size="1.08843537414966">51: 0</text><text y="71.83673469387756" x="0" font-size="1.08843537414966">52: 0</text><text y="73.19727891156462" x="0" font-size="1.08843537414966">53: 0</text><text y="74.5578231292517" x="0" font-size="1.08843537414966">54: 0</text><text y="75.91836734693878" x="0" font-size="1.08843537414966">55: 0</text><text y="77.27891156462586" x="0" font-size="1.08843537414966">56: 0</text><text y="78.63945578231294" x="0" font-size="1.08843537414966">57: 0</text><text y="80" x="0" font-size="1.08843537414966">58: 0</text><text y="81.36054421768708" x="0" font-size="1.08843537414966">59: 0</text><text y="82.72108843537416" x="0" font-size="1.08843537414966">60: 0</text><text y="84.08163265306123" x="0" font-size="1.08843537414966">61: 0</text><text y="85.4421768707483" x="0" font-size="1.08843537414966">62: 0</text><text y="86.80272108843538" x="0" font-size="1.08843537414966">63: 0</text><text y="88.16326530612245" x="0" font-size="1.08843537414966">64: 0</text><text y="89.52380952380953" x="0" font-size="1.08843537414966">65: 0</text><text y="90.88435374149661" x="0" font-size="1.08843537414966">66: 0</text><text y="92.24489795918367" x="0" font-size="1.08843537414966">67: 0</text><text y="93.60544217687075" x="0" font-size="1.08843537414966">68: 0</text><text y="94.96598639455783" x="0" font-size="1.08843537414966">69: 0</text><text y="96.32653061224491" x="0" font-size="1.08843537414966">70: 0</text><text y="97.68707482993197" x="0" font-size="1.08843537414966">71: 0</text><text y="99.04761904761905" x="0" font-size="1.08843537414966">72: 0</text><text y="100.40816326530613" x="0" font-size="1.08843537414966">73: 0</text><text y="101.76870748299321" x="0" font-size="1.08843537414966">74: 0</text><text y="103.12925170068029" x="0" font-size="1.08843537414966">75: 0</text><text y="104.48979591836735" x="0" font-size="1.08843537414966">76: 0</text><text y="105.85034013605443" x="0" font-size="1.08843537414966">77: 0</text><text y="107.2108843537415" x="0" font-size="1.08843537414966">78: 0</text><text y="108.57142857142858" x="0" font-size="1.08843537414966">79: 0</text><text y="109.93197278911565" x="0" font-size="1.08843537414966">80: 0</text><text y="111.29251700680273" x="0" font-size="1.08843537414966">81: 0</text><text y="112.6530612244898" x="0" font-size="1.08843537414966">82: 0</text><text y="114.01360544217688" x="0" font-size="1.08843537414966">83: 0</text><text y="115.37414965986396" x="0" font-size="1.08843537414966">84: 0</text><text y="116.73469387755102" x="0" font-size="1.08843537414966">85: 0</text><text y="118.0952380952381" x="0" font-size="1.08843537414966">86: 0</text><text y="119.45578231292518" x="0" font-size="1.08843537414966">87: 0</text><text y="120.81632653061226" x="0" font-size="1.08843537414966">88: 0</text><text y="122.17687074829934" x="0" font-size="1.08843537414966">89: 0</text><text y="123.5374149659864" x="0" font-size="1.08843537414966">90: 0</text><text y="124.89795918367348" x="0" font-size="1.08843537414966">91: 0</text><text y="126.25850340136056" x="0" font-size="1.08843537414966">92: 0</text><text y="127.61904761904763" x="0" font-size="1.08843537414966">93: 0</text><text y="128.9795918367347" x="0" font-size="1.08843537414966">94: 0</text><text y="130.3401360544218" x="0" font-size="1.08843537414966">95: 0</text><text y="131.70068027210888" x="0" font-size="1.08843537414966">96: 0</text><text y="133.06122448979593" x="0" font-size="1.08843537414966">97: 0</text><text y="134.421768707483" x="0" font-size="1.08843537414966">98: 0</text><text y="135.7823129251701" x="0" font-size="1.08843537414966">99: 0</text><text y="137.14285714285717" x="0" font-size="1.08843537414966">100: 0</text><text y="138.50340136054425" x="0" font-size="1.08843537414966">101: 0</text><text y="139.86394557823132" x="0" font-size="1.08843537414966">102: 0</text><text y="141.2244897959184" x="0" font-size="1.08843537414966">103: 12</text><text y="142.58503401360548" x="0" font-size="1.08843537414966">104: 63</text><text y="143.94557823129256" x="0" font-size="1.08843537414966">105: 266</text><text y="145.3061224489796" x="0" font-size="1.08843537414966">106: 750</text><text y="146.66666666666669" x="0" font-size="1.08843537414966">107: 1534</text><text y="148.02721088435376" x="0" font-size="1.08843537414966">108: 2681</text><text y="149.38775510204084" x="0" font-size="1.08843537414966">109: 4241</text><text y="150.74829931972792" x="0" font-size="1.08843537414966">110: 5425</text><text y="152.108843537415" x="0" font-size="1.08843537414966">111: 6672</text><text y="153.46938775510208" x="0" font-size="1.08843537414966">112: 7665</text><text y="154.82993197278915" x="0" font-size="1.08843537414966">113: 8246</text><text y="156.19047619047623" x="0" font-size="1.08843537414966">114: 8089</text><text y="157.55102040816328" x="0" font-size="1.08843537414966">115: 8011</text><text y="158.91156462585036" x="0" font-size="1.08843537414966">116: 7441</text><text y="160.27210884353744" x="0" font-size="1.08843537414966">117: 6853</text><text y="161.63265306122452" x="0" font-size="1.08843537414966">118: 5937</text><text y="162.9931972789116" x="0" font-size="1.08843537414966">119: 5247</text><text y="164.35374149659867" x="0" font-size="1.08843537414966">120: 4278</text><text y="165.71428571428575" x="0" font-size="1.08843537414966">121: 3506</text><text y="167.07482993197283" x="0" font-size="1.08843537414966">122: 2870</text><text y="168.4353741496599" x="0" font-size="1.08843537414966">123: 2288</text><text y="169.79591836734696" x="0" font-size="1.08843537414966">124: 1879</text><text y="171.15646258503403" x="0" font-size="1.08843537414966">125: 1496</text><text y="172.5170068027211" x="0" font-size="1.08843537414966">126: 1104</text><text y="173.8775510204082" x="0" font-size="1.08843537414966">127: 843</text><text y="175.23809523809527" x="0" font-size="1.08843537414966">128: 676</text><text y="176.59863945578235" x="0" font-size="1.08843537414966">129: 520</text><text y="177.95918367346943" x="0" font-size="1.08843537414966">130: 372</text><text y="179.3197278911565" x="0" font-size="1.08843537414966">131: 273</text><text y="180.68027210884358" x="0" font-size="1.08843537414966">132: 212</text><text y="182.04081632653063" x="0" font-size="1.08843537414966">133: 157</text><text y="183.4013605442177" x="0" font-size="1.08843537414966">134: 117</text><text y="184.7619047619048" x="0" font-size="1.08843537414966">135: 82</text><text y="186.12244897959187" x="0" font-size="1.08843537414966">136: 63</text><text y="187.48299319727894" x="0" font-size="1.08843537414966">137: 33</text><text y="188.84353741496602" x="0" font-size="1.08843537414966">138: 28</text><text y="190.2040816326531" x="0" font-size="1.08843537414966">139: 19</text><text y="191.56462585034018" x="0" font-size="1.08843537414966">140: 12</text><text y="192.92517006802726" x="0" font-size="1.08843537414966">141: 13</text><text y="194.2857142857143" x="0" font-size="1.08843537414966">142: 11</text><text y="195.64625850340138" x="0" font-size="1.08843537414966">143: 7</text><text y="197.00680272108846" x="0" font-size="1.08843537414966">144: 3</text><text y="198.36734693877554" x="0" font-size="1.08843537414966">145: 2</text><text y="199.72789115646262" x="0" font-size="1.08843537414966">146: 3</text><rect width="0" height="1.08843537414966" y="0" x="5.351473922902495">0</rect><rect width="0" height="1.08843537414966" y="1.360544217687075" x="5.351473922902495">0</rect><rect width="0" height="1.08843537414966" y="2.72108843537415" x="5.351473922902495">0</rect><rect width="0" height="1.08843537414966" y="4.0816326530612255" x="5.351473922902495">0</rect><rect width="0" height="1.08843537414966" y="5.4421768707483" x="5.351473922902495">0</rect><rect width="0" height="1.08843537414966" y="6.802721088435375" x="5.351473922902495">0</rect><rect width="0" height="1.08843537414966" y="8.163265306122451" x="5.351473922902495">0</rect><rect width="0" height="1.08843537414966" y="9.523809523809526" x="5.351473922902495">0</rect><rect width="0" height="1.08843537414966" y="10.8843537414966" x="5.351473922902495">0</rect><rect width="0" height="1.08843537414966" y="12.244897959183675" x="5.351473922902495">0</rect><rect width="0" height="1.08843537414966" y="13.60544217687075" x="5.351473922902495">0</rect><rect width="0" height="1.08843537414966" y="14.965986394557826" x="5.351473922902495">0</rect><rect width="0" height="1.08843537414966" y="16.326530612244902" x="5.351473922902495">0</rect><rect width="0" height="1.08843537414966" y="17.687074829931976" x="5.351473922902495">0</rect><rect width="0" height="1.08843537414966" y="19.04761904761905" x="5.351473922902495">0</rect><rect width="0" height="1.08843537414966" y="20.408163265306126" x="5.351473922902495">0</rect><rect width="0" height="1.08843537414966" y="21.7687074829932" x="5.351473922902495">0</rect><rect width="0" height="1.08843537414966" y="23.129251700680275" x="5.351473922902495">0</rect><rect width="0" height="1.08843537414966" y="24.48979591836735" x="5.351473922902495">0</rect><rect width="0" height="1.08843537414966" y="25.850340136054424" x="5.351473922902495">0</rect><rect width="0" height="1.08843537414966" y="27.2108843537415" x="5.351473922902495">0</rect><rect width="0" height="1.08843537414966" y="28.571428571428577" x="5.351473922902495">0</rect><rect width="0" height="1.08843537414966" y="29.93197278911565" x="5.351473922902495">0</rect><rect width="0" height="1.08843537414966" y="31.292517006802726" x="5.351473922902495">0</rect><rect width="0" height="1.08843537414966" y="32.653061224489804" x="5.351473922902495">0</rect><rect width="0" height="1.08843537414966" y="34.013605442176875" x="5.351473922902495">0</rect><rect width="0" height="1.08843537414966" y="35.37414965986395" x="5.351473922902495">0</rect><rect width="0" height="1.08843537414966" y="36.734693877551024" x="5.351473922902495">0</rect><rect width="0" height="1.08843537414966" y="38.0952380952381" x="5.351473922902495">0</rect><rect width="0" height="1.08843537414966" y="39.45578231292517" x="5.351473922902495">0</rect><rect width="0" height="1.08843537414966" y="40.81632653061225" x="5.351473922902495">0</rect><rect width="0" height="1.08843537414966" y="42.17687074829932" x="5.351473922902495">0</rect><rect width="0" height="1.08843537414966" y="43.5374149659864" x="5.351473922902495">0</rect><rect width="0" height="1.08843537414966" y="44.89795918367348" x="5.351473922902495">0</rect><rect width="0" height="1.08843537414966" y="46.25850340136055" x="5.351473922902495">0</rect><rect width="0" height="1.08843537414966" y="47.61904761904763" x="5.351473922902495">0</rect><rect width="0" height="1.08843537414966" y="48.9795918367347" x="5.351473922902495">0</rect><rect width="0" height="1.08843537414966" y="50.34013605442178" x="5.351473922902495">0</rect><rect width="0" height="1.08843537414966" y="51.70068027210885" x="5.351473922902495">0</rect><rect width="0" height="1.08843537414966" y="53.061224489795926" x="5.351473922902495">0</rect><rect width="0" height="1.08843537414966" y="54.421768707483" x="5.351473922902495">0</rect><rect width="0" height="1.08843537414966" y="55.782312925170075" x="5.351473922902495">0</rect><rect width="0" height="1.08843537414966" y="57.14285714285715" x="5.351473922902495">0</rect><rect width="0" height="1.08843537414966" y="58.503401360544224" x="5.351473922902495">0</rect><rect width="0" height="1.08843537414966" y="59.8639455782313" x="5.351473922902495">0</rect><rect width="0" height="1.08843537414966" y="61.22448979591837" x="5.351473922902495">0</rect><rect width="0" height="1.08843537414966" y="62.58503401360545" x="5.351473922902495">0</rect><rect width="0" height="1.08843537414966" y="63.94557823129252" x="5.351473922902495">0</rect><rect width="0" height="1.08843537414966" y="65.30612244897961" x="5.351473922902495">0</rect><rect width="0" height="1.08843537414966" y="66.66666666666667" x="5.351473922902495">0</rect><rect width="0" height="1.08843537414966" y="68.02721088435375" x="5.351473922902495">0</rect><rect width="0" height="1.08843537414966" y="69.38775510204083" x="5.351473922902495">0</rect><rect width="0" height="1.08843537414966" y="70.7482993197279" x="5.351473922902495">0</rect><rect width="0" height="1.08843537414966" y="72.10884353741497" x="5.351473922902495">0</rect><rect width="0" height="1.08843537414966" y="73.46938775510205" x="5.351473922902495">0</rect><rect width="0" height="1.08843537414966" y="74.82993197278913" x="5.351473922902495">0</rect><rect width="0" height="1.08843537414966" y="76.1904761904762" x="5.351473922902495">0</rect><rect width="0" height="1.08843537414966" y="77.55102040816328" x="5.351473922902495">0</rect><rect width="0" height="1.08843537414966" y="78.91156462585035" x="5.351473922902495">0</rect><rect width="0" height="1.08843537414966" y="80.27210884353742" x="5.351473922902495">0</rect><rect width="0" height="1.08843537414966" y="81.6326530612245" x="5.351473922902495">0</rect><rect width="0" height="1.08843537414966" y="82.99319727891158" x="5.351473922902495">0</rect><rect width="0" height="1.08843537414966" y="84.35374149659864" x="5.351473922902495">0</rect><rect width="0" height="1.08843537414966" y="85.71428571428572" x="5.351473922902495">0</rect><rect width="0" height="1.08843537414966" y="87.0748299319728" x="5.351473922902495">0</rect><rect width="0" height="1.08843537414966" y="88.43537414965988" x="5.351473922902495">0</rect><rect width="0" height="1.08843537414966" y="89.79591836734696" x="5.351473922902495">0</rect><rect width="0" height="1.08843537414966" y="91.15646258503402" x="5.351473922902495">0</rect><rect width="0" height="1.08843537414966" y="92.5170068027211" x="5.351473922902495">0</rect><rect width="0" height="1.08843537414966" y="93.87755102040818" x="5.351473922902495">0</rect><rect width="0" height="1.08843537414966" y="95.23809523809526" x="5.351473922902495">0</rect><rect width="0" height="1.08843537414966" y="96.59863945578232" x="5.351473922902495">0</rect><rect width="0" height="1.08843537414966" y="97.9591836734694" x="5.351473922902495">0</rect><rect width="0" height="1.08843537414966" y="99.31972789115648" x="5.351473922902495">0</rect><rect width="0" height="1.08843537414966" y="100.68027210884355" x="5.351473922902495">0</rect><rect width="0" height="1.08843537414966" y="102.04081632653063" x="5.351473922902495">0</rect><rect width="0" height="1.08843537414966" y="103.4013605442177" x="5.351473922902495">0</rect><rect width="0" height="1.08843537414966" y="104.76190476190477" x="5.351473922902495">0</rect><rect width="0" height="1.08843537414966" y="106.12244897959185" x="5.351473922902495">0</rect><rect width="0" height="1.08843537414966" y="107.48299319727893" x="5.351473922902495">0</rect><rect width="0" height="1.08843537414966" y="108.843537414966" x="5.351473922902495">0</rect><rect width="0" height="1.08843537414966" y="110.20408163265307" x="5.351473922902495">0</rect><rect width="0" height="1.08843537414966" y="111.56462585034015" x="5.351473922902495">0</rect><rect width="0" height="1.08843537414966" y="112.92517006802723" x="5.351473922902495">0</rect><rect width="0" height="1.08843537414966" y="114.2857142857143" x="5.351473922902495">0</rect><rect width="0" height="1.08843537414966" y="115.64625850340137" x="5.351473922902495">0</rect><rect width="0" height="1.08843537414966" y="117.00680272108845" x="5.351473922902495">0</rect><rect width="0" height="1.08843537414966" y="118.36734693877553" x="5.351473922902495">0</rect><rect width="0" height="1.08843537414966" y="119.7278911564626" x="5.351473922902495">0</rect><rect width="0" height="1.08843537414966" y="121.08843537414968" x="5.351473922902495">0</rect><rect width="0" height="1.08843537414966" y="122.44897959183675" x="5.351473922902495">0</rect><rect width="0" height="1.08843537414966" y="123.80952380952382" x="5.351473922902495">0</rect><rect width="0" height="1.08843537414966" y="125.1700680272109" x="5.351473922902495">0</rect><rect width="0" height="1.08843537414966" y="126.53061224489798" x="5.351473922902495">0</rect><rect width="0" height="1.08843537414966" y="127.89115646258504" x="5.351473922902495">0</rect><rect width="0" height="1.08843537414966" y="129.25170068027214" x="5.351473922902495">0</rect><rect width="0" height="1.08843537414966" y="130.61224489795921" x="5.351473922902495">0</rect><rect width="0" height="1.08843537414966" y="131.97278911564626" x="5.351473922902495">0</rect><rect width="0" height="1.08843537414966" y="133.33333333333334" x="5.351473922902495">0</rect><rect width="0" height="1.08843537414966" y="134.69387755102042" x="5.351473922902495">0</rect><rect width="0" height="1.08843537414966" y="136.0544217687075" x="5.351473922902495">0</rect><rect width="0" height="1.08843537414966" y="137.41496598639458" x="5.351473922902495">0</rect><rect width="0" height="1.08843537414966" y="138.77551020408166" x="5.351473922902495">0</rect><rect width="0.2832624682179445" height="1.08843537414966" y="140.13605442176873" x="5.351473922902495">12</rect><rect width="1.4871279581442085" height="1.08843537414966" y="141.4965986394558" x="5.351473922902495">63</rect><rect width="6.278984712164435" height="1.08843537414966" y="142.8571428571429" x="5.351473922902495">266</rect><rect width="17.703904263621528" height="1.08843537414966" y="144.21768707482994" x="5.351473922902495">750</rect><rect width="36.21038552052723" height="1.08843537414966" y="145.57823129251702" x="5.351473922902495">1534</rect><rect width="63.28555644102576" height="1.08843537414966" y="146.9387755102041" x="5.351473922902495">2681</rect><rect width="100.10967730935855" height="1.08843537414966" y="148.29931972789117" x="5.351473922902495">4241</rect><rect width="128.05824084019574" height="1.08843537414966" y="149.65986394557825" x="5.351473922902495">5425</rect><rect width="157.4939323291771" height="1.08843537414966" y="151.02040816326533" x="5.351473922902495">6672</rect><rect width="180.933901574212" height="1.08843537414966" y="152.3809523809524" x="5.351473922902495">7665</rect><rect width="194.6485260770975" height="1.08843537414966" y="153.7414965986395" x="5.351473922902495">8246</rect><rect width="190.94250878457942" height="1.08843537414966" y="155.10204081632656" x="5.351473922902495">8089</rect><rect width="189.10130274116275" height="1.08843537414966" y="156.4625850340136" x="5.351473922902495">8011</rect><rect width="175.6463355008104" height="1.08843537414966" y="157.8231292517007" x="5.351473922902495">7441</rect><rect width="161.7664745581311" height="1.08843537414966" y="159.18367346938777" x="5.351473922902495">6853</rect><rect width="140.144106150828" height="1.08843537414966" y="160.54421768707485" x="5.351473922902495">5937</rect><rect width="123.85651422829622" height="1.08843537414966" y="161.90476190476193" x="5.351473922902495">5247</rect><rect width="100.9830699196972" height="1.08843537414966" y="163.265306122449" x="5.351473922902495">4278</rect><rect width="82.75985113100944" height="1.08843537414966" y="164.62585034013608" x="5.351473922902495">3506</rect><rect width="67.74694031545839" height="1.08843537414966" y="165.98639455782316" x="5.351473922902495">2870</rect><rect width="54.00871060688807" height="1.08843537414966" y="167.34693877551024" x="5.351473922902495">2288</rect><rect width="44.35418148179314" height="1.08843537414966" y="168.7074829931973" x="5.351473922902495">1879</rect><rect width="35.31338770450374" height="1.08843537414966" y="170.06802721088437" x="5.351473922902495">1496</rect><rect width="26.060147076050892" height="1.08843537414966" y="171.42857142857144" x="5.351473922902495">1104</rect><rect width="19.8991883923106" height="1.08843537414966" y="172.78911564625852" x="5.351473922902495">843</rect><rect width="15.957119042944205" height="1.08843537414966" y="174.1496598639456" x="5.351473922902495">676</rect><rect width="12.274706956110927" height="1.08843537414966" y="175.51020408163268" x="5.351473922902495">520</rect><rect width="8.781136514756279" height="1.08843537414966" y="176.87074829931976" x="5.351473922902495">372</rect><rect width="6.444221151958237" height="1.08843537414966" y="178.23129251700684" x="5.351473922902495">273</rect><rect width="5.0043036051836856" height="1.08843537414966" y="179.5918367346939" x="5.351473922902495">212</rect><rect width="3.7060172925181063" height="1.08843537414966" y="180.95238095238096" x="5.351473922902495">157</rect><rect width="2.7618090651249583" height="1.08843537414966" y="182.31292517006804" x="5.351473922902495">117</rect><rect width="1.9356268661559537" height="1.08843537414966" y="183.67346938775512" x="5.351473922902495">82</rect><rect width="1.4871279581442085" height="1.08843537414966" y="185.0340136054422" x="5.351473922902495">63</rect><rect width="0.7789717875993473" height="1.08843537414966" y="186.39455782312928" x="5.351473922902495">33</rect><rect width="0.6609457591752037" height="1.08843537414966" y="187.75510204081635" x="5.351473922902495">28</rect><rect width="0.4484989080117454" height="1.08843537414966" y="189.11564625850343" x="5.351473922902495">19</rect><rect width="0.2832624682179445" height="1.08843537414966" y="190.4761904761905" x="5.351473922902495">12</rect><rect width="0.3068676739027732" height="1.08843537414966" y="191.8367346938776" x="5.351473922902495">13</rect><rect width="0.2596572625331157" height="1.08843537414966" y="193.19727891156464" x="5.351473922902495">11</rect><rect width="0.16523643979380093" height="1.08843537414966" y="194.55782312925172" x="5.351473922902495">7</rect><rect width="0.07081561705448612" height="1.08843537414966" y="195.9183673469388" x="5.351473922902495">3</rect><rect width="0.04721041136965741" height="1.08843537414966" y="197.27891156462587" x="5.351473922902495">2</rect><rect width="0.07081561705448612" height="1.08843537414966" y="198.63945578231295" x="5.351473922902495">3</rect></svg>
