<svg viewBox="0 0 200 200" xmlns="http://www.w3.org/2000/svg" version="1.1"><text font-size="1.0810810810810811" text-anchor="end" transform="translate(1.0810810810810811, 194.95495495495496) rotate(-90)">0: 0</text><text font-size="1.0810810810810811" text-anchor="end" transform="translate(2.4324324324324325, 194.95495495495496) rotate(-90)">1: 0</text><text font-size="1.0810810810810811" text-anchor="end" transform="translate(3.7837837837837838, 194.95495495495496) rotate(-90)">2: 0</text><text font-size="1.0810810810810811" text-anchor="end" transform="translate(5.135135135135135, 194.95495495495496) rotate(-90)">3: 0</text><text font-size="1.0810810810810811" text-anchor="end" transform="translate(6.486486486486486, 194.95495495495496) rotate(-90)">4: 0</text><text font-size="1.0810810810810811" text-anchor="end" transform="translate(7.837837837837837, 194.95495495495496) rotate(-90)">5: 0</text><text font-size="1.0810810810810811" text-anchor="end" transform="translate(9.18918918918919, 194.95495495495496) rotate(-90)">6: 0</text><text font-size="1.0810810810810811" text-anchor="end" transform="translate(10.54054054054054, 194.95495495495496) rotate(-90)">7: 0</text><text font-size="1.0810810810810811" text-anchor="end" transform="translate(11.891891891891891, 194.95495495495496) rotate(-90)">8: 0</text><text font-size="1.0810810810810811" text-anchor="end" transform="translate(13.243243243243242, 194.95495495495496) rotate(-90)">9: 0</text><text font-size="1.0810810810810811" text-anchor="end" transform="translate(14.594594594594593, 194.95495495495496) rotate(-90)">10: 0</text><text font-size="1.0810810810810811" text-anchor="end" transform="translate(15.945945945945946, 194.95495495495496) rotate(-90)">11: 0</text><text font-size="1.0810810810810811" text-anchor="end" transform="translate(17.2972972972973, 194.95495495495496) rotate(-90)">12: 0</text><text font-size="1.0810810810810811" text-anchor="end" transform="translate(18.64864864864865, 194.95495495495496) rotate(-90)">13: 0</text><text font-size="1.0810810810810811" text-anchor="end" transform="translate(20, 194.95495495495496) rotate(-90)">14: 0</text><text font-size="1.0810810810810811" text-anchor="end" transform="translate(21.35135135135135, 194.95495495495496) rotate(-90)">15: 0</text><text font-size="1.0810810810810811" text-anchor="end" transform="translate(22.7027027027027, 194.95495495495496) rotate(-90)">16: 0</text><text font-size="1.0810810810810811" text-anchor="end" transform="translate(24.054054054054053, 194.95495495495496) rotate(-90)">17: 0</text><text font-size="1.0810810810810811" text-anchor="end" transform="translate(25.405405405405403, 194.95495495495496) rotate(-90)">18: 0</text><text font-size="1.0810810810810811" text-anchor="end" transform="translate(26.756756756756754, 194.95495495495496) rotate(-90)">19: 0</text><text font-size="1.0810810810810811" text-anchor="end" transform="translate(28.108108108108105, 194.95495495495496) rotate(-90)">20: 0</text><text font-size="1.0810810810810811" text-anchor="end" transform="translate(29.45945945945946, 194.95495495495496) rotate(-90)">21: 0</text><text font-size="1.0810810810810811" text-anchor="end" transform="translate(30.81081081081081, 194.95495495495496) rotate(-90)">22: 0</text><text font-size="1.0810810810810811" text-anchor="end" transform="translate(32.16216216216216, 194.95495495495496) rotate(-90)">23: 0</text><text font-size="1.0810810810810811" text-anchor="end" transform="translate(33.513513513513516, 194.95495495495496) rotate(-90)">24: 0</text><text font-size="1.0810810810810811" text-anchor="end" transform="translate(34.86486486486486, 194.95495495495496) rotate(-90)">25: 0</text><text font-size="1.0810810810810811" text-anchor="end" transform="translate(36.21621621621622, 194.95495495495496) rotate(-90)">26: 0</text><text font-size="1.0810810810810811" text-anchor="end" transform="translate(37.567567567567565, 194.95495495495496) rotate(-90)">27: 0</text><text font-size="1.0810810810810811" text-anchor="end" transform="translate(38.91891891891892, 194.95495495495496) rotate(-90)">28: 0</text><text font-size="1.0810810810810811" text-anchor="end" transform="translate(40.27027027027027, 194.95495495495496) rotate(-90)">29: 0</text><text font-size="1.0810810810810811" text-anchor="end" transform="translate(41.62162162162162, 194.95495495495496) rotate(-90)">30: 0</text><text font-size="1.0810810810810811" text-anchor="end" transform="translate(42.97297297297297, 194.95495495495496) rotate(-90)">31: 0</text><text font-size="1.0810810810810811" text-anchor="end" transform="translate(44.32432432432432, 194.95495495495496) rotate(-90)">32: 0</text><text font-size="1.0810810810810811" text-anchor="end" transform="translate(45.67567567567568, 194.95495495495496) rotate(-90)">33: 0</text><text font-size="1.0810810810810811" text-anchor="end" transform="translate(47.027027027027025, 194.95495495495496) rotate(-90)">34: 0</text><text font-size="1.0810810810810811" text-anchor="end" transform="translate(48.37837837837838, 194.95495495495496) rotate(-90)">35: 0</text><text font-size="1.0810810810810811" text-anchor="end" transform="translate(49.729729729729726, 194.95495495495496) rotate(-90)">36: 0</text><text font-size="1.0810810810810811" text-anchor="end" transform="translate(51.08108108108108, 194.95495495495496) rotate(-90)">37: 0</text><text font-size="1.0810810810810811" text-anchor="end" transform="translate(52.43243243243243, 194.95495495495496) rotate(-90)">38: 0</text><text font-size="1.0810810810810811" text-anchor="end" transform="translate(53.78378378378378, 194.95495495495496) rotate(-90)">39: 0</text><text font-size="1.0810810810810811" text-anchor="end" transform="translate(55.13513513513513, 194.95495495495496) rotate(-90)">40: 0</text><text font-size="1.0810810810810811" text-anchor="end" transform="translate(56.486486486486484, 194.95495495495496) rotate(-90)">41: 0</text><text font-size="1.0810810810810811" text-anchor="end" transform="translate(57.83783783783784, 194.95495495495496) rotate(-90)">42: 0</text><text font-size="1.0810810810810811" text-anchor="end" transform="translate(59.189189189189186, 194.95495495495496) rotate(-90)">43: 0</text><text font-size="1.0810810810810811" text-anchor="end" transform="translate(60.54054054054054, 194.95495495495496) rotate(-90)">44: 0</text><text font-size="1.0810810810810811" text-anchor="end" transform="translate(61.89189189189189, 194.95495495495496) rotate(-90)">45: 0</text><text font-size="1.0810810810810811" text-anchor="end" transform="translate(63.24324324324324, 194.95495495495496) rotate(-90)">46: 0</text><text font-size="1.0810810810810811" text-anchor="end" transform="translate(64.5945945945946, 194.95495495495496) rotate(-90)">47: 0</text><text font-size="1.0810810810810811" text-anchor="end" transform="translate(65.94594594594595, 194.95495495495496) rotate(-90)">48: 0</text><text font-size="1.0810810810810811" text-anchor="end" transform="translate(67.29729729729729, 194.95495495495496) rotate(-90)">49: 0</text><text font-size="1.0810810810810811" text-anchor="end" transform="translate(68.64864864864865, 194.95495495495496) rotate(-90)">50: 0</text><text font-size="1.0810810810810811" text-anchor="end" transform="translate(70, 194.95495495495496) rotate(-90)">51: 0</text><text font-size="1.0810810810810811" text-anchor="end" transform="translate(71.35135135135135, 194.95495495495496) rotate(-90)">52: 0</text><text font-size="1.0810810810810811" text-anchor="end" transform="translate(72.7027027027027, 194.95495495495496) rotate(-90)">53: 0</text><text font-size="1.0810810810810811" text-anchor="end" transform="translate(74.05405405405405, 194.95495495495496) rotate(-90)">54: 0</text><text font-size="1.0810810810810811" text-anchor="end" transform="translate(75.4054054054054, 194.95495495495496) rotate(-90)">55: 0</text><text font-size="1.0810810810810811" text-anchor="end" transform="translate(76.75675675675676, 194.95495495495496) rotate(-90)">56: 0</text><text font-size="1.0810810810810811" text-anchor="end" transform="translate(78.10810810810811, 194.95495495495496) rotate(-90)">57: 0</text><text font-size="1.0810810810810811" text-anchor="end" transform="translate(79.45945945945945, 194.95495495495496) rotate(-90)">58: 0</text><text font-size="1.0810810810810811" text-anchor="end" transform="translate(80.8108108108108, 194.95495495495496) rotate(-90)">59: 0</text><text font-size="1.0810810810810811" text-anchor="end" transform="translate(82.16216216216216, 194.95495495495496) rotate(-90)">60: 0</text><text font-size="1.0810810810810811" text-anchor="end" transform="translate(83.51351351351352, 194.95495495495496) rotate(-90)">61: 0</text><text font-size="1.0810810810810811" text-anchor="end" transform="translate(84.86486486486486, 194.95495495495496) rotate(-90)">62: 0</text><text font-size="1.0810810810810811" text-anchor="end" transform="translate(86.21621621621621, 194.95495495495496) rotate(-90)">63: 0</text><text font-size="1.0810810810810811" text-anchor="end" transform="translate(87.56756756756756, 194.95495495495496) rotate(-90)">64: 0</text><text font-size="1.0810810810810811" text-anchor="end" transform="translate(88.91891891891892, 194.95495495495496) rotate(-90)">65: 0</text><text font-size="1.0810810810810811" text-anchor="end" transform="translate(90.27027027027027, 194.95495495495496) rotate(-90)">66: 0</text><text font-size="1.0810810810810811" text-anchor="end" transform="translate(91.62162162162161, 194.95495495495496) rotate(-90)">67: 0</text><text font-size="1.0810810810810811" text-anchor="end" transform="translate(92.97297297297297, 194.95495495495496) rotate(-90)">68: 0</text><text font-size="1.0810810810810811" text-anchor="end" transform="translate(94.32432432432432, 194.95495495495496) rotate(-90)">69: 0</text><text font-size="1.0810810810810811" text-anchor="end" transform="translate(95.67567567567568, 194.95495495495496) rotate(-90)">70: 0</text><text font-size="1.0810810810810811" text-anchor="end" transform="translate(97.02702702702702, 194.95495495495496) rotate(-90)">71: 0</text><text font-size="1.0810810810810811" text-anchor="end" transform="translate(98.37837837837837, 194.95495495495496) rotate(-90)">72: 0</text><text font-size="1.0810810810810811" text-anchor="end" transform="translate(99.72972972972973, 194.95495495495496) rotate(-90)">73: 0</text><text font-size="1.0810810810810811" text-anchor="end" transform="translate(101.08108108108108, 194.95495495495496) rotate(-90)">74: 0</text><text font-size="1.0810810810810811" text-anchor="end" transform="translate(102.43243243243244, 194.95495495495496) rotate(-90)">75: 0</text><text font-size="1.0810810810810811" text-anchor="end" transform="translate(103.78378378378378, 194.95495495495496) rotate(-90)">76: 0</text><text font-size="1.0810810810810811" text-anchor="end" transform="translate(105.13513513513513, 194.95495495495496) rotate(-90)">77: 0</text><text font-size="1.0810810810810811" text-anchor="end" transform="translate(106.48648648648648, 194.95495495495496) rotate(-90)">78: 0</text><text font-size="1.0810810810810811" text-anchor="end" transform="translate(107.83783783783784, 194.95495495495496) rotate(-90)">79: 0</text><text font-size="1.0810810810810811" text-anchor="end" transform="translate(109.18918918918918, 194.95495495495496) rotate(-90)">80: 0</text><text font-size="1.0810810810810811" text-anchor="end" transform="translate(110.54054054054053, 194.95495495495496) rotate(-90)">81: 0</text><text font-size="1.0810810810810811" text-anchor="end" transform="translate(111.89189189189189, 194.95495495495496) rotate(-90)">82: 0</text><text font-size="1.0810810810810811" text-anchor="end" transform="translate(113.24324324324324, 194.95495495495496) rotate(-90)">83: 0</text><text font-size="1.0810810810810811" text-anchor="end" transform="translate(114.5945945945946, 194.95495495495496) rotate(-90)">84: 0</text><text font-size="1.0810810810810811" text-anchor="end" transform="translate(115.94594594594594, 194.95495495495496) rotate(-90)">85: 0</text><text font-size="1.0810810810810811" text-anchor="end" transform="translate(117.29729729729729, 194.95495495495496) rotate(-90)">86: 0</text><text font-size="1.0810810810810811" text-anchor="end" transform="translate(118.64864864864865, 194.95495495495496) rotate(-90)">87: 0</text><text font-size="1.0810810810810811" text-anchor="end" transform="translate(120, 194.95495495495496) rotate(-90)">88: 0</text><text font-size="1.0810810810810811" text-anchor="end" transform="translate(121.35135135135135, 194.95495495495496) rotate(-90)">89: 0</text><text font-size="1.0810810810810811" text-anchor="end" transform="translate(122.7027027027027, 194.95495495495496) rotate(-90)">90: 0</text><text font-size="1.0810810810810811" text-anchor="end" transform="translate(124.05405405405405, 194.95495495495496) rotate(-90)">91: 0</text><text font-size="1.0810810810810811" text-anchor="end" transform="translate(125.4054054054054, 194.95495495495496) rotate(-90)">92: 0</text><text font-size="1.0810810810810811" text-anchor="end" transform="translate(126.75675675675676, 194.95495495495496) rotate(-90)">93: 0</text><text font-size="1.0810810810810811" text-anchor="end" transform="translate(128.1081081081081, 194.95495495495496) rotate(-90)">94: 0</text><text font-size="1.0810810810810811" text-anchor="end" transform="translate(129.45945945945948, 194.95495495495496) rotate(-90)">95: 0</text><text font-size="1.0810810810810811" text-anchor="end" transform="translate(130.81081081081084, 194.95495495495496) rotate(-90)">96: 0</text><text font-size="1.0810810810810811" text-anchor="end" transform="translate(132.16216216216216, 194.95495495495496) rotate(-90)">97: 0</text><text font-size="1.0810810810810811" text-anchor="end" transform="translate(133.51351351351352, 194.95495495495496) rotate(-90)">98: 0</text><text font-size="1.0810810810810811" text-anchor="end" transform="translate(134.86486486486487, 194.95495495495496) rotate(-90)">99: 0</text><text font-size="1.0810810810810811" text-anchor="end" transform="translate(136.21621621621622, 194.95495495495496) rotate(-90)">100: 0</text><text font-size="1.0810810810810811" text-anchor="end" transform="translate(137.56756756756758, 194.95495495495496) rotate(-90)">101: 0</text><text font-size="1.0810810810810811" text-anchor="end" transform="translate(138.91891891891893, 194.95495495495496) rotate(-90)">102: 1</text><text font-size="1.0810810810810811" text-anchor="end" transform="translate(140.2702702702703, 194.95495495495496) rotate(-90)">103: 7</text><text font-size="1.0810810810810811" text-anchor="end" transform="translate(141.62162162162164, 194.95495495495496) rotate(-90)">104: 70</text><text font-size="1.0810810810810811" text-anchor="end" transform="translate(142.972972972973, 194.95495495495496) rotate(-90)">105: 269</text><text font-size="1.0810810810810811" text-anchor="end" transform="translate(144.32432432432432, 194.95495495495496) rotate(-90)">106: 704</text><text font-size="1.0810810810810811" text-anchor="end" transform="translate(145.67567567567568, 194.95495495495496) rotate(-90)">107: 1571</text><text font-size="1.0810810810810811" text-anchor="end" transform="translate(147.02702702702703, 194.95495495495496) rotate(-90)">108: 2769</text><text font-size="1.0810810810810811" text-anchor="end" transform="translate(148.3783783783784, 194.95495495495496) rotate(-90)">109: 4170</text><text font-size="1.0810810810810811" text-anchor="end" transform="translate(149.72972972972974, 194.95495495495496) rotate(-90)">110: 5552</text><text font-size="1.0810810810810811" text-anchor="end" transform="translate(151.0810810810811, 194.95495495495496) rotate(-90)">111: 6856</text><text font-size="1.0810810810810811" text-anchor="end" transform="translate(152.43243243243245, 194.95495495495496) rotate(-90)">112: 7684</text><text font-size="1.0810810810810811" text-anchor="end" transform="translate(153.7837837837838, 194.95495495495496) rotate(-90)">113: 8114</text><text font-size="1.0810810810810811" text-anchor="end" transform="translate(155.13513513513516, 194.95495495495496) rotate(-90)">114: 8171</text><text font-size="1.0810810810810811" text-anchor="end" transform="translate(156.48648648648648, 194.95495495495496) rotate(-90)">115: 7808</text><text font-size="1.0810810810810811" text-anchor="end" transform="translate(157.83783783783784, 194.95495495495496) rotate(-90)">116: 7518</text><text font-size="1.0810810810810811" text-anchor="end" transform="translate(159.1891891891892, 194.95495495495496) rotate(-90)">117: 6668</text><text font-size="1.0810810810810811" text-anchor="end" transform="translate(160.54054054054055, 194.95495495495496) rotate(-90)">118: 5918</text><text font-size="1.0810810810810811" text-anchor="end" transform="translate(161.8918918918919, 194.95495495495496) rotate(-90)">119: 5039</text><text font-size="1.0810810810810811" text-anchor="end" transform="translate(163.24324324324326, 194.95495495495496) rotate(-90)">120: 4320</text><text font-size="1.0810810810810811" text-anchor="end" transform="translate(164.5945945945946, 194.95495495495496) rotate(-90)">121: 3589</text><text font-size="1.0810810810810811" text-anchor="end" transform="translate(165.94594594594597, 194.95495495495496) rotate(-90)">122: 2923</text><text font-size="1.0810810810810811" text-anchor="end" transform="translate(167.29729729729732, 194.95495495495496) rotate(-90)">123: 2401</text><text font-size="1.0810810810810811" text-anchor="end" transform="translate(168.64864864864865, 194.95495495495496) rotate(-90)">124: 1830</text><text font-size="1.0810810810810811" text-anchor="end" transform="translate(170, 194.95495495495496) rotate(-90)">125: 1471</text><text font-size="1.0810810810810811" text-anchor="end" transform="translate(171.35135135135135, 194.95495495495496) rotate(-90)">126: 1157</text><text font-size="1.0810810810810811" text-anchor="end" transform="translate(172.7027027027027, 194.95495495495496) rotate(-90)">127: 897</text><text font-size="1.0810810810810811" text-anchor="end" transform="translate(174.05405405405406, 194.95495495495496) rotate(-90)">128: 676</text><text font-size="1.0810810810810811" text-anchor="end" transform="translate(175.40540540540542, 194.95495495495496) rotate(-90)">129: 510</text><text font-size="1.0810810810810811" text-anchor="end" transform="translate(176.75675675675677, 194.95495495495496) rotate(-90)">130: 344</text><text font-size="1.0810810810810811" text-anchor="end" transform="translate(178.10810810810813, 194.95495495495496) rotate(-90)">131: 288</text><text font-size="1.0810810810810811" text-anchor="end" transform="translate(179.45945945945948, 194.95495495495496) rotate(-90)">132: 197</text><text font-size="1.0810810810810811" text-anchor="end" transform="translate(180.8108108108108, 194.95495495495496) rotate(-90)">133: 151</text><text font-size="1.0810810810810811" text-anchor="end" transform="translate(182.16216216216216, 194.95495495495496) rotate(-90)">134: 131</text><text font-size="1.0810810810810811" text-anchor="end" transform="translate(183.51351351351352, 194.95495495495496) rotate(-90)">135: 71</text><text font-size="1.0810810810810811" text-anchor="end" transform="translate(184.86486486486487, 194.95495495495496) rotate(-90)">136: 54</text><text font-size="1.0810810810810811" text-anchor="end" transform="translate(186.21621621621622, 194.95495495495496) rotate(-90)">137: 29</text><text font-size="1.0810810810810811" text-anchor="end" transform="translate(187.56756756756758, 194.95495495495496) rotate(-90)">138: 23</text><text font-size="1.0810810810810811" text-anchor="end" transform="translate(188.91891891891893, 194.95495495495496) rotate(-90)">139: 17</text><text font-size="1.0810810810810811" text-anchor="end" transform="translate(190.2702702702703, 194.95495495495496) rotate(-90)">140: 14</text><text font-size="1.0810810810810811" text-anchor="end" transform="translate(191.62162162162164, 194.95495495495496) rotate(-90)">141: 9</text><text font-size="1.0810810810810811" text-anchor="end" transform="translate(192.97297297297297, 194.95495495495496) rotate(-90)">142: 3</text><text font-size="1.0810810810810811" text-anchor="end" transform="translate(194.32432432432432, 194.95495495495496) rotate(-90)">143: 2</text><text font-size="1.0810810810810811" text-anchor="end" transform="translate(195.67567567567568, 194.95495495495496) rotate(-90)">144: 1</text><text font-size="1.0810810810810811" text-anchor="end" transform="translate(197.02702702702703, 194.95495495495496) rotate(-90)">145: 1</text><text font-size="1.0810810810810811" text-anchor="end" transform="translate(198.3783783783784, 194.95495495495496) rotate(-90)">146: 1</text><text font-size="1.0810810810810811" text-anchor="end" transform="translate(199.72972972972974, 194.95495495495496) rotate(-90)">147: 1</text><rect height="0" width="1.0810810810810811" x="0" y="194.6846846846847">0</rect><rect height="0" width="1.0810810810810811" x="1.3513513513513513" y="194.6846846846847">0</rect><rect height="0" width="1.0810810810810811" x="2.7027027027027026" y="194.6846846846847">0</rect><rect height="0" width="1.0810810810810811" x="4.054054054054054" y="194.6846846846847">0</rect><rect height="0" width="1.0810810810810811" x="5.405405405405405" y="194.6846846846847">0</rect><rect height="0" width="1.0810810810810811" x="6.756756756756756" y="194.6846846846847">0</rect><rect height="0" width="1.0810810810810811" x="8.108108108108109" y="194.6846846846847">0</rect><rect height="0" width="1.0810810810810811" x="9.45945945945946" y="194.6846846846847">0</rect><rect height="0" width="1.0810810810810811" x="10.81081081081081" y="194.6846846846847">0</rect><rect height="0" width="1.0810810810810811" x="12.162162162162161" y="194.6846846846847">0</rect><rect height="0" width="1.0810810810810811" x="13.513513513513512" y="194.6846846846847">0</rect><rect height="0" width="1.0810810810810811" x="14.864864864864865" y="194.6846846846847">0</rect><rect height="0" width="1.0810810810810811" x="16.216216216216218" y="194.6846846846847">0</rect><rect height="0" width="1.0810810810810811" x="17.56756756756757" y="194.6846846846847">0</rect><rect height="0" width="1.0810810810810811" x="18.91891891891892" y="194.6846846846847">0</rect><rect height="0" width="1.0810810810810811" x="20.27027027027027" y="194.6846846846847">0</rect><rect height="0" width="1.0810810810810811" x="21.62162162162162" y="194.6846846846847">0</rect><rect height="0" width="1.0810810810810811" x="22.972972972972972" y="194.6846846846847">0</rect><rect height="0" width="1.0810810810810811" x="24.324324324324323" y="194.6846846846847">0</rect><rect height="0" width="1.0810810810810811" x="25.675675675675674" y="194.6846846846847">0</rect><rect height="0" width="1.0810810810810811" x="27.027027027027025" y="194.6846846846847">0</rect><rect height="0" width="1.0810810810810811" x="28.37837837837838" y="194.6846846846847">0</rect><rect height="0" width="1.0810810810810811" x="29.72972972972973" y="194.6846846846847">0</rect><rect height="0" width="1.0810810810810811" x="31.08108108108108" y="194.6846846846847">0</rect><rect height="0" width="1.0810810810810811" x="32.432432432432435" y="194.6846846846847">0</rect><rect height="0" width="1.0810810810810811" x="33.78378378378378" y="194.6846846846847">0</rect><rect height="0" width="1.0810810810810811" x="35.13513513513514" y="194.6846846846847">0</rect><rect height="0" width="1.0810810810810811" x="36.486486486486484" y="194.6846846846847">0</rect><rect height="0" width="1.0810810810810811" x="37.83783783783784" y="194.6846846846847">0</rect><rect height="0" width="1.0810810810810811" x="39.189189189189186" y="194.6846846846847">0</rect><rect height="0" width="1.0810810810810811" x="40.54054054054054" y="194.6846846846847">0</rect><rect height="0" width="1.0810810810810811" x="41.89189189189189" y="194.6846846846847">0</rect><rect height="0" width="1.0810810810810811" x="43.24324324324324" y="194.6846846846847">0</rect><rect height="0" width="1.0810810810810811" x="44.5945945945946" y="194.6846846846847">0</rect><rect height="0" width="1.0810810810810811" x="45.945945945945944" y="194.6846846846847">0</rect><rect height="0" width="1.0810810810810811" x="47.2972972972973" y="194.6846846846847">0</rect><rect height="0" width="1.0810810810810811" x="48.648648648648646" y="194.6846846846847">0</rect><rect height="0" width="1.0810810810810811" x="50" y="194.6846846846847">0</rect><rect height="0" width="1.0810810810810811" x="51.35135135135135" y="194.6846846846847">0</rect><rect height="0" width="1.0810810810810811" x="52.7027027027027" y="194.6846846846847">0</rect><rect height="0" width="1.0810810810810811" x="54.05405405405405" y="194.6846846846847">0</rect><rect height="0" width="1.0810810810810811" x="55.4054054054054" y="194.6846846846847">0</rect><rect height="0" width="1.0810810810810811" x="56.75675675675676" y="194.6846846846847">0</rect><rect height="0" width="1.0810810810810811" x="58.108108108108105" y="194.6846846846847">0</rect><rect height="0" width="1.0810810810810811" x="59.45945945945946" y="194.6846846846847">0</rect><rect height="0" width="1.0810810810810811" x="60.81081081081081" y="194.6846846846847">0</rect><rect height="0" width="1.0810810810810811" x="62.16216216216216" y="194.6846846846847">0</rect><rect height="0" width="1.0810810810810811" x="63.51351351351351" y="194.6846846846847">0</rect><rect height="0" width="1.0810810810810811" x="64.86486486486487" y="194.6846846846847">0</rect><rect height="0" width="1.0810810810810811" x="66.21621621621621" y="194.6846846846847">0</rect><rect height="0" width="1.0810810810810811" x="67.56756756756756" y="194.6846846846847">0</rect><rect height="0" width="1.0810810810810811" x="68.91891891891892" y="194.6846846846847">0</rect><rect height="0" width="1.0810810810810811" x="70.27027027027027" y="194.6846846846847">0</rect><rect height="0" width="1.0810810810810811" x="71.62162162162161" y="194.6846846846847">0</rect><rect height="0" width="1.0810810810810811" x="72.97297297297297" y="194.6846846846847">0</rect><rect height="0" width="1.0810810810810811" x="74.32432432432432" y="194.6846846846847">0</rect><rect height="0" width="1.0810810810810811" x="75.67567567567568" y="194.6846846846847">0</rect><rect height="0" width="1.0810810810810811" x="77.02702702702703" y="194.6846846846847">0</rect><rect height="0" width="1.0810810810810811" x="78.37837837837837" y="194.6846846846847">0</rect><rect height="0" width="1.0810810810810811" x="79.72972972972973" y="194.6846846846847">0</rect><rect height="0" width="1.0810810810810811" x="81.08108108108108" y="194.6846846846847">0</rect><rect height="0" width="1.0810810810810811" x="82.43243243243244" y="194.6846846846847">0</rect><rect height="0" width="1.0810810810810811" x="83.78378378378378" y="194.6846846846847">0</rect><rect height="0" width="1.0810810810810811" x="85.13513513513513" y="194.6846846846847">0</rect><rect height="0" width="1.0810810810810811" x="86.48648648648648" y="194.6846846846847">0</rect><rect height="0" width="1.0810810810810811" x="87.83783783783784" y="194.6846846846847">0</rect><rect height="0" width="1.0810810810810811" x="89.1891891891892" y="194.6846846846847">0</rect><rect height="0" width="1.0810810810810811" x="90.54054054054053" y="194.6846846846847">0</rect><rect height="0" width="1.0810810810810811" x="91.89189189189189" y="194.6846846846847">0</rect><rect height="0" width="1.0810810810810811" x="93.24324324324324" y="194.6846846846847">0</rect><rect height="0" width="1.0810810810810811" x="94.5945945945946" y="194.6846846846847">0</rect><rect height="0" width="1.0810810810810811" x="95.94594594594594" y="194.6846846846847">0</rect><rect height="0" width="1.0810810810810811" x="97.29729729729729" y="194.6846846846847">0</rect><rect height="0" width="1.0810810810810811" x="98.64864864864865" y="194.6846846846847">0</rect><rect height="0" width="1.0810810810810811" x="100" y="194.6846846846847">0</rect><rect height="0" width="1.0810810810810811" x="101.35135135135135" y="194.6846846846847">0</rect><rect height="0" width="1.0810810810810811" x="102.7027027027027" y="194.6846846846847">0</rect><rect height="0" width="1.0810810810810811" x="104.05405405405405" y="194.6846846846847">0</rect><rect height="0" width="1.0810810810810811" x="105.4054054054054" y="194.6846846846847">0</rect><rect height="0" width="1.0810810810810811" x="106.75675675675676" y="194.6846846846847">0</rect><rect height="0" width="1.0810810810810811" x="108.1081081081081" y="194.6846846846847">0</rect><rect height="0" width="1.0810810810810811" x="109.45945945945945" y="194.6846846846847">0</rect><rect height="0" width="1.0810810810810811" x="110.8108108108108" y="194.6846846846847">0</rect><rect height="0" width="1.0810810810810811" x="112.16216216216216" y="194.6846846846847">0</rect><rect height="0" width="1.0810810810810811" x="113.51351351351352" y="194.6846846846847">0</rect><rect height="0" width="1.0810810810810811" x="114.86486486486486" y="194.6846846846847">0</rect><rect height="0" width="1.0810810810810811" x="116.21621621621621" y="194.6846846846847">0</rect><rect height="0" width="1.0810810810810811" x="117.56756756756756" y="194.6846846846847">0</rect><rect height="0" width="1.0810810810810811" x="118.91891891891892" y="194.6846846846847">0</rect><rect height="0" width="1.0810810810810811" x="120.27027027027027" y="194.6846846846847">0</rect><rect height="0" width="1.0810810810810811" x="121.62162162162161" y="194.6846846846847">0</rect><rect height="0" width="1.0810810810810811" x="122.97297297297297" y="194.6846846846847">0</rect><rect height="0" width="1.0810810810810811" x="124.32432432432432" y="194.6846846846847">0</rect><rect height="0" width="1.0810810810810811" x="125.67567567567568" y="194.6846846846847">0</rect><rect height="0" width="1.0810810810810811" x="127.02702702702702" y="194.6846846846847">0</rect><rect height="0" width="1.0810810810810811" x="128.3783783783784" y="194.6846846846847">0</rect><rect height="0" width="1.0810810810810811" x="129.72972972972974" y="194.6846846846847">0</rect><rect height="0" width="1.0810810810810811" x="131.08108108108107" y="194.6846846846847">0</rect><rect height="0" width="1.0810810810810811" x="132.43243243243242" y="194.6846846846847">0</rect><rect height="0" width="1.0810810810810811" x="133.78378378378378" y="194.6846846846847">0</rect><rect height="0" width="1.0810810810810811" x="135.13513513513513" y="194.6846846846847">0</rect><rect height="0" width="1.0810810810810811" x="136.48648648648648" y="194.6846846846847">0</rect><rect height="0.023826298456086734" width="1.0810810810810811" x="137.83783783783784" y="194.6608583862286">1</rect><rect height="0.16678408919260712" width="1.0810810810810811" x="139.1891891891892" y="194.51790059549208">7</rect><rect height="1.6678408919260712" width="1.0810810810810811" x="140.54054054054055" y="193.01684379275864">70</rect><rect height="6.409274284687331" width="1.0810810810810811" x="141.8918918918919" y="188.27541039999736">269</rect><rect height="16.77371411308506" width="1.0810810810810811" x="143.24324324324323" y="177.91097057159965">704</rect><rect height="37.43111487451226" width="1.0810810810810811" x="144.59459459459458" y="157.25356981017245">1571</rect><rect height="65.97502042490416" width="1.0810810810810811" x="145.94594594594594" y="128.70966425978054">2769</rect><rect height="99.35566456188167" width="1.0810810810810811" x="147.2972972972973" y="95.32902012280303">4170</rect><rect height="132.28360902819352" width="1.0810810810810811" x="148.64864864864865" y="62.40107565649117">5552</rect><rect height="163.35310221493063" width="1.0810810810810811" x="150" y="31.331582469754068">6856</rect><rect height="183.08127733657045" width="1.0810810810810811" x="151.35135135135135" y="11.603407348114246">7684</rect><rect height="193.32658567268777" width="1.0810810810810811" x="152.7027027027027" y="1.3580990119969272">8114</rect><rect height="194.6846846846847" width="1.0810810810810811" x="154.05405405405406" y="0">8171</rect><rect height="186.0357383451252" width="1.0810810810810811" x="155.4054054054054" y="8.648946339559501">7808</rect><rect height="179.12611179286006" width="1.0810810810810811" x="156.75675675675674" y="15.558572891824639">7518</rect><rect height="158.87375810518634" width="1.0810810810810811" x="158.1081081081081" y="35.81092657949836">6668</rect><rect height="141.0040342631213" width="1.0810810810810811" x="159.45945945945945" y="53.6806504215634">5918</rect><rect height="120.06071792022104" width="1.0810810810810811" x="160.8108108108108" y="74.62396676446366">5039</rect><rect height="102.9296093302947" width="1.0810810810810811" x="162.16216216216216" y="91.75507535439">4320</rect><rect height="85.51258515889528" width="1.0810810810810811" x="163.51351351351352" y="109.17209952578942">3589</rect><rect height="69.64427038714153" width="1.0810810810810811" x="164.86486486486487" y="125.04041429754317">2923</rect><rect height="57.20694259306424" width="1.0810810810810811" x="166.21621621621622" y="137.47774209162046">2401</rect><rect height="43.60212617463872" width="1.0810810810810811" x="167.56756756756755" y="151.08255851004597">1830</rect><rect height="35.048485028903585" width="1.0810810810810811" x="168.9189189189189" y="159.63619965578113">1471</rect><rect height="27.567027313692346" width="1.0810810810810811" x="170.27027027027026" y="167.11765737099236">1157</rect><rect height="21.372189715109798" width="1.0810810810810811" x="171.6216216216216" y="173.3124949695749">897</rect><rect height="16.106577756314632" width="1.0810810810810811" x="172.97297297297297" y="178.57810692837006">676</rect><rect height="12.151412212604233" width="1.0810810810810811" x="174.32432432432432" y="182.53327247208045">510</rect><rect height="8.196246668893835" width="1.0810810810810811" x="175.67567567567568" y="186.48843801579085">344</rect><rect height="6.861973955352979" width="1.0810810810810811" x="177.02702702702703" y="187.82271072933173">288</rect><rect height="4.6937807958490865" width="1.0810810810810811" x="178.3783783783784" y="189.99090388883562">197</rect><rect height="3.5977710668690963" width="1.0810810810810811" x="179.7297297297297" y="191.0869136178156">151</rect><rect height="3.1212450977473623" width="1.0810810810810811" x="181.08108108108107" y="191.56343958693733">131</rect><rect height="1.691667190382158" width="1.0810810810810811" x="182.43243243243242" y="192.99301749430253">71</rect><rect height="1.2866201166286835" width="1.0810810810810811" x="183.78378378378378" y="193.39806456805601">54</rect><rect height="0.6909626552265152" width="1.0810810810810811" x="185.13513513513513" y="193.99372202945818">29</rect><rect height="0.5480048644899949" width="1.0810810810810811" x="186.48648648648648" y="194.1366798201947">23</rect><rect height="0.40504707375347443" width="1.0810810810810811" x="187.83783783783784" y="194.27963761093122">17</rect><rect height="0.33356817838521424" width="1.0810810810810811" x="189.1891891891892" y="194.3511165062995">14</rect><rect height="0.2144366861047806" width="1.0810810810810811" x="190.54054054054055" y="194.4702479985799">9</rect><rect height="0.0714788953682602" width="1.0810810810810811" x="191.89189189189187" y="194.61320578931642">3</rect><rect height="0.04765259691217347" width="1.0810810810810811" x="193.24324324324323" y="194.63703208777252">2</rect><rect height="0.023826298456086734" width="1.0810810810810811" x="194.59459459459458" y="194.6608583862286">1</rect><rect height="0.023826298456086734" width="1.0810810810810811" x="195.94594594594594" y="194.6608583862286">1</rect><rect height="0.023826298456086734" width="1.0810810810810811" x="197.2972972972973" y="194.6608583862286">1</rect><rect height="0.023826298456086734" width="1.0810810810810811" x="198.64864864864865" y="194.6608583862286">1</rect></svg>
