<svg viewBox="0 0 200 200" xmlns="http://www.w3.org/2000/svg" version="1.1"><text y="2.5" x="0" font-size="2.5">0: 0</text><text y="7" x="0" font-size="2.5">1: 0</text><text y="11.5" x="0" font-size="2.5">2: 0</text><text y="16" x="0" font-size="2.5">3: 0</text><text y="20.5" x="0" font-size="2.5">4: 0</text><text y="25" x="0" font-size="2.5">5: 0</text><text y="29.5" x="0" font-size="2.5">6: 0</text><text y="34" x="0" font-size="2.5">7: 0</text><text y="38.5" x="0" font-size="2.5">8: 0</text><text y="43" x="0" font-size="2.5">9: 0</text><text y="47.5" x="0" font-size="2.5">10: 0</text><text y="52" x="0" font-size="2.5">11: 110</text><text y="56.5" x="0" font-size="2.5">12: 3180</text><text y="61" x="0" font-size="2.5">13: 14175</text><text y="65.5" x="0" font-size="2.5">14: 23312</text><text y="70" x="0" font-size="2.5">15: 23013</text><text y="74.5" x="0" font-size="2.5">16: 16383</text><text y="79" x="0" font-size="2.5">17: 9993</text><text y="83.5" x="0" font-size="2.5">18: 5265</text><text y="88" x="0" font-size="2.5">19: 2641</text><text y="92.5" x="0" font-size="2.5">20: 1162</text><text y="97" x="0" font-size="2.5">21: 461</text><text y="101.5" x="0" font-size="2.5">22: 198</text><text y="106" x="0" font-size="2.5">23: 76</text><text y="110.5" x="0" font-size="2.5">24: 23</text><text y="115" x="0" font-size="2.5">25: 6</text><text y="119.5" x="0" font-size="2.5">26: 1</text><text y="124" x="0" font-size="2.5">27: 0</text><text y="128.5" x="0" font-size="2.5">28: 0</text><text y="133" x="0" font-size="2.5">29: 1</text><text y="137.5" x="0" font-size="2.5">30: 0</text><text y="142" x="0" font-size="2.5">31: 0</text><text y="146.5" x="0" font-size="2.5">32: 0</text><text y="151" x="0" font-size="2.5">33: 0</text><text y="155.5" x="0" font-size="2.5">34: 0</text><text y="160" x="0" font-size="2.5">35: 0</text><text y="164.5" x="0" font-size="2.5">36: 0</text><text y="169" x="0" font-size="2.5">37: 0</text><text y="173.5" x="0" font-size="2.5">38: 0</text><text y="178" x="0" font-size="2.5">39: 0</text><text y="182.5" x="0" font-size="2.5">40: 0</text><text y="187" x="0" font-size="2.5">41: 0</text><text y="191.5" x="0" font-size="2.5">42: 0</text><text y="196" x="0" font-size="2.5">43: 0</text><text y="200.5" x="0" font-size="2.5">44: 0</text><text y="205" x="0" font-size="2.5">45: 0</text><text y="209.5" x="0" font-size="2.5">46: 0</text><text y="214" x="0" font-size="2.5">47: 0</text><text y="218.5" x="0" font-size="2.5">48: 0</text><text y="223" x="0" font-size="2.5">49: 0</text><text y="227.5" x="0" font-size="2.5">50: 0</text><text y="232" x="0" font-size="2.5">51: 0</text><text y="236.5" x="0" font-size="2.5">52: 0</text><text y="241" x="0" font-size="2.5">53: 0</text><text y="245.5" x="0" font-size="2.5">54: 0</text><text y="250" x="0" font-size="2.5">55: 0</text><text y="254.5" x="0" font-size="2.5">56: 0</text><text y="259" x="0" font-size="2.5">57: 0</text><text y="263.5" x="0" font-size="2.5">58: 0</text><text y="268" x="0" font-size="2.5">59: 0</text><text y="272.5" x="0" font-size="2.5">60: 0</text><text y="277" x="0" font-size="2.5">61: 0</text><text y="281.5" x="0" font-size="2.5">62: 0</text><text y="286" x="0" font-size="2.5">63: 0</text><text y="290.5" x="0" font-size="2.5">64: 0</text><text y="295" x="0" font-size="2.5">65: 0</text><text y="299.5" x="0" font-size="2.5">66: 0</text><text y="304" x="0" font-size="2.5">67: 0</text><text y="308.5" x="0" font-size="2.5">68: 0</text><text y="313" x="0" font-size="2.5">69: 0</text><text y="317.5" x="0" font-size="2.5">70: 0</text><text y="322" x="0" font-size="2.5">71: 0</text><text y="326.5" x="0" font-size="2.5">72: 0</text><text y="331" x="0" font-size="2.5">73: 0</text><text y="335.5" x="0" font-size="2.5">74: 0</text><text y="340" x="0" font-size="2.5">75: 0</text><text y="344.5" x="0" font-size="2.5">76: 0</text><text y="349" x="0" font-size="2.5">77: 0</text><text y="353.5" x="0" font-size="2.5">78: 0</text><text y="358" x="0" font-size="2.5">79: 0</text><text y="362.5" x="0" font-size="2.5">80: 0</text><text y="367" x="0" font-size="2.5">81: 0</text><text y="371.5" x="0" font-size="2.5">82: 0</text><text y="376" x="0" font-size="2.5">83: 0</text><text y="380.5" x="0" font-size="2.5">84: 0</text><text y="385" x="0" font-size="2.5">85: 0</text><text y="389.5" x="0" font-size="2.5">86: 0</text><text y="394" x="0" font-size="2.5">87: 0</text><text y="398.5" x="0" font-size="2.5">88: 0</text><text y="403" x="0" font-size="2.5">89: 0</text><text y="407.5" x="0" font-size="2.5">90: 0</text><text y="412" x="0" font-size="2.5">91: 0</text><text y="416.5" x="0" font-size="2.5">92: 0</text><text y="421" x="0" font-size="2.5">93: 0</text><text y="425.5" x="0" font-size="2.5">94: 0</text><text y="430" x="0" font-size="2.5">95: 0</text><text y="434.5" x="0" font-size="2.5">96: 0</text><text y="439" x="0" font-size="2.5">97: 0</text><text y="443.5" x="0" font-size="2.5">98: 0</text><text y="448" x="0" font-size="2.5">99: 0</text><rect width="0" height="2.5" y="0" x="12">0</rect><rect width="0" height="2.5" y="4.5" x="12">0</rect><rect width="0" height="2.5" y="9" x="12">0</rect><rect width="0" height="2.5" y="13.5" x="12">0</rect><rect width="0" height="2.5" y="18" x="12">0</rect><rect width="0" height="2.5" y="22.5" x="12">0</rect><rect width="0" height="2.5" y="27" x="12">0</rect><rect width="0" height="2.5" y="31.5" x="12">0</rect><rect width="0" height="2.5" y="36" x="12">0</rect><rect width="0" height="2.5" y="40.5" x="12">0</rect><rect width="0" height="2.5" y="45" x="12">0</rect><rect width="0.8870967741935483" height="2.5" y="49.5" x="12">110</rect><rect width="25.64516129032258" height="2.5" y="54" x="12">3180</rect><rect width="114.31451612903226" height="2.5" y="58.5" x="12">14175</rect><rect width="188" height="2.5" y="63" x="12">23312</rect><rect width="185.58870967741936" height="2.5" y="67.5" x="12">23013</rect><rect width="132.1209677419355" height="2.5" y="72" x="12">16383</rect><rect width="80.58870967741936" height="2.5" y="76.5" x="12">9993</rect><rect width="42.45967741935484" height="2.5" y="81" x="12">5265</rect><rect width="21.298387096774196" height="2.5" y="85.5" x="12">2641</rect><rect width="9.370967741935484" height="2.5" y="90" x="12">1162</rect><rect width="3.717741935483871" height="2.5" y="94.5" x="12">461</rect><rect width="1.596774193548387" height="2.5" y="99" x="12">198</rect><rect width="0.6129032258064516" height="2.5" y="103.5" x="12">76</rect><rect width="0.18548387096774197" height="2.5" y="108" x="12">23</rect><rect width="0.048387096774193554" height="2.5" y="112.5" x="12">6</rect><rect width="0.008064516129032258" height="2.5" y="117" x="12">1</rect><rect width="0" height="2.5" y="121.5" x="12">0</rect><rect width="0" height="2.5" y="126" x="12">0</rect><rect width="0.008064516129032258" height="2.5" y="130.5" x="12">1</rect><rect width="0" height="2.5" y="135" x="12">0</rect><rect width="0" height="2.5" y="139.5" x="12">0</rect><rect width="0" height="2.5" y="144" x="12">0</rect><rect width="0" height="2.5" y="148.5" x="12">0</rect><rect width="0" height="2.5" y="153" x="12">0</rect><rect width="0" height="2.5" y="157.5" x="12">0</rect><rect width="0" height="2.5" y="162" x="12">0</rect><rect width="0" height="2.5" y="166.5" x="12">0</rect><rect width="0" height="2.5" y="171" x="12">0</rect><rect width="0" height="2.5" y="175.5" x="12">0</rect><rect width="0" height="2.5" y="180" x="12">0</rect><rect width="0" height="2.5" y="184.5" x="12">0</rect><rect width="0" height="2.5" y="189" x="12">0</rect><rect width="0" height="2.5" y="193.5" x="12">0</rect><rect width="0" height="2.5" y="198" x="12">0</rect><rect width="0" height="2.5" y="202.5" x="12">0</rect><rect width="0" height="2.5" y="207" x="12">0</rect><rect width="0" height="2.5" y="211.5" x="12">0</rect><rect width="0" height="2.5" y="216" x="12">0</rect><rect width="0" height="2.5" y="220.5" x="12">0</rect><rect width="0" height="2.5" y="225" x="12">0</rect><rect width="0" height="2.5" y="229.5" x="12">0</rect><rect width="0" height="2.5" y="234" x="12">0</rect><rect width="0" height="2.5" y="238.5" x="12">0</rect><rect width="0" height="2.5" y="243" x="12">0</rect><rect width="0" height="2.5" y="247.5" x="12">0</rect><rect width="0" height="2.5" y="252" x="12">0</rect><rect width="0" height="2.5" y="256.5" x="12">0</rect><rect width="0" height="2.5" y="261" x="12">0</rect><rect width="0" height="2.5" y="265.5" x="12">0</rect><rect width="0" height="2.5" y="270" x="12">0</rect><rect width="0" height="2.5" y="274.5" x="12">0</rect><rect width="0" height="2.5" y="279" x="12">0</rect><rect width="0" height="2.5" y="283.5" x="12">0</rect><rect width="0" height="2.5" y="288" x="12">0</rect><rect width="0" height="2.5" y="292.5" x="12">0</rect><rect width="0" height="2.5" y="297" x="12">0</rect><rect width="0" height="2.5" y="301.5" x="12">0</rect><rect width="0" height="2.5" y="306" x="12">0</rect><rect width="0" height="2.5" y="310.5" x="12">0</rect><rect width="0" height="2.5" y="315" x="12">0</rect><rect width="0" height="2.5" y="319.5" x="12">0</rect><rect width="0" height="2.5" y="324" x="12">0</rect><rect width="0" height="2.5" y="328.5" x="12">0</rect><rect width="0" height="2.5" y="333" x="12">0</rect><rect width="0" height="2.5" y="337.5" x="12">0</rect><rect width="0" height="2.5" y="342" x="12">0</rect><rect width="0" height="2.5" y="346.5" x="12">0</rect><rect width="0" height="2.5" y="351" x="12">0</rect><rect width="0" height="2.5" y="355.5" x="12">0</rect><rect width="0" height="2.5" y="360" x="12">0</rect><rect width="0" height="2.5" y="364.5" x="12">0</rect><rect width="0" height="2.5" y="369" x="12">0</rect><rect width="0" height="2.5" y="373.5" x="12">0</rect><rect width="0" height="2.5" y="378" x="12">0</rect><rect width="0" height="2.5" y="382.5" x="12">0</rect><rect width="0" height="2.5" y="387" x="12">0</rect><rect width="0" height="2.5" y="391.5" x="12">0</rect><rect width="0" height="2.5" y="396" x="12">0</rect><rect width="0" height="2.5" y="400.5" x="12">0</rect><rect width="0" height="2.5" y="405" x="12">0</rect><rect width="0" height="2.5" y="409.5" x="12">0</rect><rect width="0" height="2.5" y="414" x="12">0</rect><rect width="0" height="2.5" y="418.5" x="12">0</rect><rect width="0" height="2.5" y="423" x="12">0</rect><rect width="0" height="2.5" y="427.5" x="12">0</rect><rect width="0" height="2.5" y="432" x="12">0</rect><rect width="0" height="2.5" y="436.5" x="12">0</rect><rect width="0" height="2.5" y="441" x="12">0</rect><rect width="0" height="2.5" y="445.5" x="12">0</rect></svg>
